/* XPM */
static char *result[] = {
/* columns rows colors chars-per-pixel */
"32 32 20 1 ",
"  c black",
". c #020202",
"X c #0E0300",
"o c #0D0400",
"O c #070608",
"+ c #111111",
"@ c #141311",
"# c gray14",
"$ c gray45",
"% c #767676",
"& c #FFD415",
"* c #FFD418",
"= c #FED518",
"- c #F4D443",
"; c #898989",
": c gray55",
"> c #8E8B91",
", c gray96",
"< c white",
"1 c None",
/* pixels */
"11111111111111111111111111111111",
"11111111111111111111111111111111",
"11111111111111111111111111111111",
"11111111111111111111111111111111",
"11111111111111111111111111111111",
"11111111111111111111111111111111",
"11111111111111111111111111111111",
"111111111111111111111<<111111111",
"11111111111111111111111111111111",
"11111111111111111111111111111111",
"1      111111111111111111     11",
" ::::::    1111111111  ..::::: 1",
" ::::::%%%%          %%%%:::::$#",
"+::::::::::%%%%%%%%%%:::::::::: ",
"@:::::: : :::::::::::: : :::::: ",
" :::::::::::::::::::::::::::::& ",
"1 *::: : :::::::::::: : :::::=O1",
"1  --;:::::::::::::::::::::--  1",
"111XX----->::::::::::------oX111",
"11111     -----------      11111",
"1111111,,,           ,,,11111111",
"1111111, ,11111111111, ,11111111",
"1111111,,,11111111111,,,11111111",
"11111111111111111111111111111111",
"11111111111111111111111111111111",
"11111111111111111111111111111111",
"11111111111111111111111111111111",
"11111111111111111111111111111111",
"11111111111111111111111111111111",
"11111111111111111111111111111111",
"11111111111111111111111111111111",
"11111111111111111111111111111111"
};
