/* XPM */
static char *_4c089c9e60848518540fde86a828a8cZjdJZd6M82ywscnC[] = {
/* columns rows colors chars-per-pixel */
"32 32 64 1 ",
"  c None",
". c #170000",
"X c #260000",
"o c #290000",
"O c #350000",
"+ c #3C0000",
"@ c #3D0000",
"# c #3E0000",
"$ c #410000",
"% c #470000",
"& c #4A0000",
"* c #4D0000",
"= c #570000",
"- c #5B0000",
"; c #6E0000",
": c #750000",
"> c #760000",
", c #790000",
"< c #7B0000",
"1 c #820000",
"2 c #8A0000",
"3 c #8B0000",
"4 c #8D0000",
"5 c #910000",
"6 c #920000",
"7 c #940707",
"8 c #980000",
"9 c #990000",
"0 c #A00000",
"q c #AC0000",
"w c #AE0000",
"e c #B10000",
"r c #B30000",
"t c #B40000",
"y c #B50000",
"u c #BA0000",
"i c #BE0000",
"p c #9F2121",
"a c #C00000",
"s c #C20000",
"d c #C40000",
"f c #C60000",
"g c #CD0000",
"h c #D20000",
"j c #DA0000",
"k c #DE0000",
"l c #C71111",
"z c #C81111",
"x c #E40000",
"c c #EA0000",
"v c #FB0000",
"b c #FD0000",
"n c red",
"m c #CB2121",
"M c #CB2424",
"N c #D13E3E",
"B c #DC7373",
"V c #DEBBBB",
"C c #DEBCBC",
"Z c #EECFCF",
"A c #EFD1D1",
"S c #EAD7D7",
"D c #F0D6D6",
"F c #F5F0F0",
/* pixels */
"                                ",
"         ZddddddZZ              ",
"         dddddddddr             ",
"          VV555wddh55S          ",
"         5555555::jd5555        ",
"        5555::::::5nn5555       ",
"       5555:::::::::n0:555      ",
"    d  55::::::=****dxd555      ",
"      55aivv::****&@@a<:55 l    ",
"     559gnc::***&&@@@u:::4 dA   ",
"     5dnn:::****@@@@@@@::5 dd   ",
"     5dnr:::***$@@@oooo::35dd   ",
"    55nd::::***$@@Ooooo:::5dd   ",
"     nn:::::**@@@@ooo...::5dd   ",
"     n::::::**@@@@oo....::ddd   ",
"    d5::::::**@@@@oo....::dd    ",
"    d5::::::**@@@@oo...:::dd    ",
"   dd5::::::**@@@@oo...:::dd    ",
"   Md5::::::**@@@@OooXX:::dd    ",
"   dd5::::::**@@@@Ooooo:::dz    ",
"   dd5::::::**@@@@@oooo::dd     ",
"   dd55:::::***$@@@@@@@:nn5     ",
"    d55:dnn:***$@@@@@=:nn55     ",
"    d 55:dn:******@@@ynn55      ",
"    d 55::nn:*******@=:555      ",
"      555:5n::****-::1555       ",
"       C555dk::;:::335555       ",
"        7555nd<::::55557   F    ",
"         5555dnw5555555   dd    ",
"           p55adady9DBddm       ",
"               Nddddddd         ",
"                                "
};
