/* XPM */
static char *_bcf17e483ef4652fbe6257f7029e50fq3p55a38jtZJWi5h[] = {
/* columns rows colors chars-per-pixel */
"32 32 6 1 ",
"  c #3A4466",
". c #C29969",
"X c #5A6988",
"o c #8B9BB4",
"O c #C0CBDC",
"+ c #E9E5E1",
/* pixels */
"X+OOOOOOOOOOOOOoX+OOOOOOOOOOOOOo",
"XX+OOOOOOOOOOOooXX+OOOOOOOOOOOoo",
"XXX+OOOOOOOOOoooXXX+OOOOOOOOOooo",
"XXXX+OOOOOOOooooXXXX+OOOOOOOoooo",
"XXXXX+OOOOOoooooXXXXX+OOOOOooooo",
"XXXXXX+OOOooooooXXXXXX+OOOoooooo",
"XXXXXXX+OoooooooXXXXXXX+Oooooooo",
"XXXXXXX..oooooooXXXXXXX..ooooooo",
"XXXXXXX..oooooooXXXXXXX..ooooooo",
"XXXXXXX  oooooooXXXXXXX  ooooooo",
"XXXXXX    ooooooXXXXXX    oooooo",
"XXXXX   o  oooooXXXXX   o  ooooo",
"XXXX   o    ooooXXXX   o    oooo",
"XXX   o   o  oooXXX   o   o  ooo",
"XX   o   o    ooXX   o   o    oo",
"X              oX              o",
"X+OOOOOOOOOOOOOoX+OOOOOOOOOOOOOo",
"XX+OOOOOOOOOOOooXX+OOOOOOOOOOOoo",
"XXX+OOOOOOOOOoooXXX+OOOOOOOOOooo",
"XXXX+OOOOOOOooooXXXX+OOOOOOOoooo",
"XXXXX+OOOOOoooooXXXXX+OOOOOooooo",
"XXXXXX+OOOooooooXXXXXX+OOOoooooo",
"XXXXXXX+OoooooooXXXXXXX+Oooooooo",
"XXXXXXX..oooooooXXXXXXX..ooooooo",
"XXXXXXX..oooooooXXXXXXX..ooooooo",
"XXXXXXX  oooooooXXXXXXX  ooooooo",
"XXXXXX    ooooooXXXXXX    oooooo",
"XXXXX   o  oooooXXXXX   o  ooooo",
"XXXX   o    ooooXXXX   o    oooo",
"XXX   o   o  oooXXX   o   o  ooo",
"XX   o   o    ooXX   o   o    oo",
"X              oX              o"
};
